<svg version="1.1" id="Layer_1" xmlns="http://www.w3.org/2000/svg" xmlns:xlink="http://www.w3.org/1999/xlink" x="0px" y="0px"
	 width="100%" viewBox="0 0 1920 1920" enable-background="new 0 0 1920 1920" xml:space="preserve">
<path fill="#000000" opacity="1.000000" stroke="none" 
	d="
M1275.000000,1921.000000 
	C850.000000,1921.000000 425.500000,1921.000000 1.000000,1921.000000 
	C1.000000,1281.000000 1.000000,641.000000 1.000000,1.000000 
	C641.000000,1.000000 1281.000000,1.000000 1921.000000,1.000000 
	C1921.000000,641.000000 1921.000000,1281.000000 1921.000000,1921.000000 
	C1705.833374,1921.000000 1490.666626,1921.000000 1275.000000,1921.000000 
M1096.181396,749.080200 
	C1095.526855,748.644226 1094.872192,748.208252 1093.848755,747.212830 
	C1091.898193,745.767212 1089.947510,744.321655 1087.996948,742.876099 
	C1087.688232,743.315063 1087.379395,743.754028 1087.070679,744.192932 
	C1089.198486,745.685059 1091.326416,747.177124 1093.819214,749.095276 
	C1094.486206,749.459473 1095.153320,749.823669 1096.154541,750.762268 
	C1097.748169,751.924866 1099.341675,753.087463 1100.935303,754.250061 
	C1101.208984,753.853027 1101.482544,753.455994 1101.756226,753.058960 
	C1099.997681,751.903625 1098.239014,750.748352 1096.181396,749.080200 
M639.931824,510.191925 
	C627.174988,508.431396 614.418213,506.670868 601.661377,504.910339 
	C601.571167,505.581116 601.480896,506.251892 601.390686,506.922638 
	C614.509583,508.512238 627.628418,510.101837 641.557068,512.013367 
	C650.685242,513.651123 659.813416,515.288879 668.941589,516.926636 
	C669.031006,516.431702 669.120483,515.936768 669.209900,515.441895 
	C659.718994,513.729919 650.228088,512.017944 639.931824,510.191925 
M832.845764,1098.890381 
	C833.091309,1098.871460 833.336792,1098.852539 833.582336,1098.833740 
	C833.397644,1098.547363 833.212952,1098.261108 833.090637,1097.231201 
	C808.156189,1043.302734 783.223511,989.373352 758.286865,935.445801 
	C734.541748,884.095154 710.749634,832.766174 687.132446,781.356812 
	C685.375854,777.533020 683.507812,775.923889 679.074585,776.071472 
	C667.422119,776.459351 655.747131,776.288391 644.083679,776.140564 
	C641.223816,776.104309 639.707703,776.878906 638.451172,779.637024 
	C626.515381,805.836060 614.349670,831.930420 602.456482,858.148499 
	C601.702148,859.811401 601.887268,862.845032 602.948730,864.245789 
	C619.637451,886.270752 635.837952,908.720276 653.539612,929.912048 
	C693.684753,977.971985 738.716675,1021.241455 786.521851,1061.613525 
	C801.520752,1074.280273 817.130371,1086.223999 832.845764,1098.890381 
M1479.029175,1258.956299 
	C1478.704834,1262.605347 1478.504517,1266.270264 1478.037476,1269.900879 
	C1471.111084,1323.725586 1443.677124,1363.141113 1394.853760,1387.110596 
	C1360.090332,1404.177490 1322.709473,1408.784912 1284.537964,1408.526123 
	C1236.213867,1408.198486 1189.158447,1399.311279 1142.799316,1386.390381 
	C1063.497192,1364.287842 988.682007,1331.296875 916.847290,1291.500977 
	C777.268127,1214.175171 652.984741,1117.393433 546.710938,998.030151 
	C503.630585,949.643738 464.791138,898.106506 433.681732,841.092468 
	C406.924805,792.055176 386.189362,740.909302 381.553925,684.498474 
	C379.346008,657.629517 381.652985,631.169800 391.322876,605.796753 
	C408.250366,561.380371 441.390228,534.233276 485.358734,519.187866 
	C518.754578,507.760345 553.353455,505.087036 588.386963,506.233337 
	C590.488220,506.302094 592.600647,506.031128 594.707886,505.918213 
	C594.694031,505.430145 594.680115,504.942108 594.666199,504.454071 
	C580.876160,504.123840 567.081177,503.382324 553.296997,503.545288 
	C520.251709,503.936005 487.861328,508.429382 457.097687,521.237244 
	C417.094391,537.891785 388.252960,565.573669 374.042755,607.122009 
	C362.924622,639.629639 363.014404,672.912231 368.563324,706.375610 
	C376.248138,752.719666 393.558868,795.677490 415.359894,836.957825 
	C446.952087,896.777710 486.984406,950.702454 531.285828,1001.582703 
	C533.778503,1004.445618 533.997009,1006.412659 532.432007,1009.785889 
	C508.760468,1060.809570 485.245300,1111.905884 461.711884,1162.993530 
	C458.324005,1170.348145 455.032318,1177.746948 451.612701,1185.309692 
	C452.624298,1185.602295 453.061401,1185.839233 453.498596,1185.839478 
	C487.829010,1185.854492 522.159668,1185.896118 556.489014,1185.697021 
	C558.001160,1185.688232 560.157288,1183.781372 560.903320,1182.226196 
	C567.812378,1167.823364 574.545837,1153.334595 581.153259,1138.790283 
	C582.420959,1135.999878 583.892517,1134.887329 587.093567,1134.906128 
	C612.424072,1135.054932 637.756165,1134.925537 663.086365,1135.098267 
	C665.319397,1135.113525 667.994507,1136.138672 669.704102,1137.589966 
	C732.302795,1190.735474 798.675476,1238.592529 869.358582,1280.429077 
	C939.176697,1321.753540 1011.921204,1356.801392 1089.027588,1382.407104 
	C1148.858643,1402.276001 1209.844238,1416.466675 1273.178833,1418.340698 
	C1314.155518,1419.553223 1354.405273,1415.617310 1392.584106,1399.267944 
	C1423.414551,1386.065186 1447.966187,1365.700684 1463.622803,1335.555542 
	C1476.205566,1311.328125 1480.488770,1285.237183 1480.891968,1257.333374 
	C1480.506348,1250.520264 1480.120728,1243.707275 1479.734985,1236.894165 
	C1479.520020,1236.909180 1479.304932,1236.924072 1479.089966,1236.939087 
	C1479.089966,1243.981567 1479.089966,1251.024048 1479.029175,1258.956299 
M1051.633789,717.395935 
	C1039.739502,709.422485 1027.935059,701.310852 1015.936157,693.497925 
	C938.951477,643.370422 858.163635,600.675232 771.614136,569.413940 
	C713.912598,548.572327 654.954834,533.052490 593.349243,529.652405 
	C557.286011,527.662109 521.643677,529.958435 487.518768,542.962402 
	C444.257080,559.448242 415.994843,589.484558 406.581879,635.573242 
	C400.525360,665.227905 403.613708,694.610291 410.733246,723.709961 
	C421.276428,766.802917 439.875153,806.513733 462.186798,844.570862 
	C503.489197,915.020813 555.497986,977.061890 612.818298,1034.836914 
	C672.591553,1095.084351 737.770569,1148.894165 807.614014,1197.051392 
	C885.439209,1250.712280 967.414001,1296.852417 1055.212402,1332.233276 
	C1119.711426,1358.224976 1185.789062,1378.414185 1255.495972,1384.474121 
	C1290.934082,1387.554810 1326.172363,1386.607056 1360.457153,1376.003174 
	C1409.992920,1360.682373 1442.998291,1329.469727 1453.558472,1277.230103 
	C1457.142456,1259.500366 1457.041382,1227.233887 1452.981445,1213.689941 
	C1452.750366,1216.680664 1452.794922,1219.673096 1452.743652,1222.663940 
	C1451.948730,1269.003784 1427.348022,1304.052612 1384.307129,1320.446777 
	C1358.808105,1330.159302 1332.269409,1332.847900 1305.274048,1332.436646 
	C1263.487671,1331.800049 1222.870850,1323.799072 1182.896606,1312.252808 
	C1096.032959,1287.162842 1015.748108,1247.590820 938.972900,1200.495728 
	C877.817749,1162.982300 820.085754,1120.725464 765.596741,1074.033936 
	C706.853882,1023.697388 652.607056,969.043457 605.660522,907.412354 
	C572.443176,863.805054 543.137634,817.840210 523.567627,766.304626 
	C511.703491,735.061768 503.680298,702.996399 507.015991,669.167786 
	C510.717224,631.632385 528.648193,603.244019 562.437012,585.638123 
	C588.494507,572.060669 616.719055,568.048035 645.655640,567.757446 
	C694.316895,567.268799 741.262756,577.331970 787.472900,591.452332 
	C851.739441,611.090210 912.630127,638.653931 971.127563,671.469971 
	C998.109253,686.606323 1024.269775,703.206726 1051.091309,719.746033 
	C1062.005249,727.049438 1072.919189,734.352844 1083.833130,741.656311 
	C1084.135376,741.220642 1084.437500,740.784973 1084.739746,740.349304 
	C1073.849121,732.866943 1062.958374,725.384521 1051.633789,717.395935 
M1457.500000,1194.268555 
	C1490.578125,1194.268555 1523.656128,1194.268555 1557.003784,1194.268555 
	C1557.003784,1188.791138 1557.106079,1183.978149 1556.939697,1179.174561 
	C1556.891357,1177.777832 1556.320312,1176.256470 1555.575195,1175.047241 
	C1525.446045,1126.147461 1495.263550,1077.280640 1465.102539,1028.400513 
	C1457.525024,1016.119873 1449.996948,1003.808777 1442.355835,991.364624 
	C1443.349121,990.624695 1443.974121,990.104187 1444.650757,989.662903 
	C1490.180298,959.973877 1513.660156,917.127747 1520.161621,863.923157 
	C1523.852173,833.722839 1523.738892,803.414551 1523.787354,773.092590 
	C1523.788330,772.482727 1523.465820,771.872375 1523.319824,771.353455 
	C1486.348999,771.353455 1449.600708,771.353455 1412.365967,771.353455 
	C1412.365967,781.603210 1412.421265,791.567749 1412.354492,801.531494 
	C1412.214844,822.375427 1411.692017,843.192200 1406.945435,863.635864 
	C1401.667480,886.367859 1391.433105,905.856323 1370.409668,917.896606 
	C1349.254272,930.012451 1326.007568,931.651001 1301.875854,931.160461 
	C1301.875854,877.694092 1301.875854,824.626404 1301.875854,771.332642 
	C1265.022339,771.332642 1228.629395,771.332642 1192.046509,771.332642 
	C1192.046509,912.339111 1192.046509,1053.075073 1192.046509,1194.049805 
	C1228.646240,1194.049805 1265.038086,1194.049805 1302.006592,1194.049805 
	C1302.006592,1140.274902 1302.006592,1086.738770 1302.006592,1033.685547 
	C1315.385132,1032.735474 1328.147217,1031.708374 1340.928955,1031.082397 
	C1342.439209,1031.008423 1344.674072,1032.780640 1345.535522,1034.289551 
	C1372.602295,1081.698486 1399.532715,1129.185059 1426.508179,1176.646118 
	C1429.792969,1182.425659 1431.931274,1190.311523 1436.933838,1193.250854 
	C1441.930420,1196.186523 1449.857788,1194.134155 1457.500000,1194.268555 
M1146.819214,845.708984 
	C1136.545044,825.833862 1121.985840,809.617981 1102.787842,798.375427 
	C1045.115234,764.601685 985.046387,762.241455 923.961609,787.763123 
	C892.862305,800.756653 869.312927,822.592285 856.627441,854.585938 
	C845.397400,882.908813 845.932129,911.952820 853.064209,941.020264 
	C859.546692,967.440002 874.522827,988.006348 897.790161,1002.324341 
	C915.038818,1012.938599 933.911255,1019.637451 953.736816,1022.757812 
	C974.432617,1026.015137 995.385498,1027.635254 1016.223328,1029.995117 
	C1029.967651,1031.551758 1043.781860,1032.964600 1056.178711,1039.858154 
	C1073.547363,1049.516479 1076.049316,1070.642944 1061.229858,1083.737915 
	C1057.547852,1086.991455 1053.223877,1089.853149 1048.718872,1091.783691 
	C1026.477661,1101.315186 1003.412048,1102.280273 980.205261,1096.362183 
	C961.494324,1091.590698 945.363159,1083.322266 942.852966,1061.297607 
	C909.238281,1061.297607 875.986816,1061.297607 842.369568,1061.297607 
	C842.303345,1078.783203 844.994385,1095.391113 851.936218,1111.163574 
	C852.884827,1113.318726 854.540344,1115.464355 856.426697,1116.860229 
	C891.524536,1142.831543 927.771179,1167.088989 965.361938,1189.313965 
	C967.316406,1190.469604 969.551819,1191.501953 971.765991,1191.814087 
	C1010.397461,1197.257202 1048.198730,1194.218384 1084.829346,1180.210449 
	C1110.357178,1170.448242 1132.615356,1155.948486 1149.417114,1134.036987 
	C1169.042358,1108.443115 1174.626099,1079.135376 1171.485107,1047.657593 
	C1169.707764,1029.846680 1165.096680,1012.968750 1154.995850,997.931152 
	C1142.269775,978.985352 1123.911499,967.705444 1102.927124,960.204468 
	C1075.556030,950.420410 1046.886475,947.225342 1018.246155,943.970825 
	C1002.198608,942.147156 986.054810,940.765991 970.753174,935.074036 
	C959.306702,930.816040 950.022827,924.271118 947.822693,911.124451 
	C945.277893,895.918884 951.036072,883.938416 963.752808,876.146729 
	C988.039001,861.266296 1013.675232,860.019287 1039.680786,871.513611 
	C1048.309204,875.327209 1054.821899,881.888550 1058.113770,890.955811 
	C1059.501831,894.779053 1059.986206,898.930359 1060.842163,902.756714 
	C1093.724609,902.756714 1126.466187,902.756714 1159.376465,902.756714 
	C1159.617798,882.757263 1155.856689,864.039246 1146.819214,845.708984 
z"/>
<path fill="#FDFDFD" opacity="1.000000" stroke="none" 
	d="
M1050.802612,719.143311 
	C1024.269775,703.206726 998.109253,686.606323 971.127563,671.469971 
	C912.630127,638.653931 851.739441,611.090210 787.472900,591.452332 
	C741.262756,577.331970 694.316895,567.268799 645.655640,567.757446 
	C616.719055,568.048035 588.494507,572.060669 562.437012,585.638123 
	C528.648193,603.244019 510.717224,631.632385 507.015991,669.167786 
	C503.680298,702.996399 511.703491,735.061768 523.567627,766.304626 
	C543.137634,817.840210 572.443176,863.805054 605.660522,907.412354 
	C652.607056,969.043457 706.853882,1023.697388 765.596741,1074.033936 
	C820.085754,1120.725464 877.817749,1162.982300 938.972900,1200.495728 
	C1015.748108,1247.590820 1096.032959,1287.162842 1182.896606,1312.252808 
	C1222.870850,1323.799072 1263.487671,1331.800049 1305.274048,1332.436646 
	C1332.269409,1332.847900 1358.808105,1330.159302 1384.307129,1320.446777 
	C1427.348022,1304.052612 1451.948730,1269.003784 1452.743652,1222.663940 
	C1452.794922,1219.673096 1452.750366,1216.680664 1452.981445,1213.689941 
	C1457.041382,1227.233887 1457.142456,1259.500366 1453.558472,1277.230103 
	C1442.998291,1329.469727 1409.992920,1360.682373 1360.457153,1376.003174 
	C1326.172363,1386.607056 1290.934082,1387.554810 1255.495972,1384.474121 
	C1185.789062,1378.414185 1119.711426,1358.224976 1055.212402,1332.233276 
	C967.414001,1296.852417 885.439209,1250.712280 807.614014,1197.051392 
	C737.770569,1148.894165 672.591553,1095.084351 612.818298,1034.836914 
	C555.497986,977.061890 503.489197,915.020813 462.186798,844.570862 
	C439.875153,806.513733 421.276428,766.802917 410.733246,723.709961 
	C403.613708,694.610291 400.525360,665.227905 406.581879,635.573242 
	C415.994843,589.484558 444.257080,559.448242 487.518768,542.962402 
	C521.643677,529.958435 557.286011,527.662109 593.349243,529.652405 
	C654.954834,533.052490 713.912598,548.572327 771.614136,569.413940 
	C858.163635,600.675232 938.951477,643.370422 1015.936157,693.497925 
	C1027.935059,701.310852 1039.739502,709.422485 1051.725830,717.928467 
	C1051.479370,718.688416 1051.140991,718.915833 1050.802612,719.143311 
z"/>
<path fill="#FEFEFE" opacity="1.000000" stroke="none" 
	d="
M1457.000122,1194.268555 
	C1449.857788,1194.134155 1441.930420,1196.186523 1436.933838,1193.250854 
	C1431.931274,1190.311523 1429.792969,1182.425659 1426.508179,1176.646118 
	C1399.532715,1129.185059 1372.602295,1081.698486 1345.535522,1034.289551 
	C1344.674072,1032.780640 1342.439209,1031.008423 1340.928955,1031.082397 
	C1328.147217,1031.708374 1315.385132,1032.735474 1302.006592,1033.685547 
	C1302.006592,1086.738770 1302.006592,1140.274902 1302.006592,1194.049805 
	C1265.038086,1194.049805 1228.646240,1194.049805 1192.046509,1194.049805 
	C1192.046509,1053.075073 1192.046509,912.339111 1192.046509,771.332642 
	C1228.629395,771.332642 1265.022339,771.332642 1301.875854,771.332642 
	C1301.875854,824.626404 1301.875854,877.694092 1301.875854,931.160461 
	C1326.007568,931.651001 1349.254272,930.012451 1370.409668,917.896606 
	C1391.433105,905.856323 1401.667480,886.367859 1406.945435,863.635864 
	C1411.692017,843.192200 1412.214844,822.375427 1412.354492,801.531494 
	C1412.421265,791.567749 1412.365967,781.603210 1412.365967,771.353455 
	C1449.600708,771.353455 1486.348999,771.353455 1523.319824,771.353455 
	C1523.465820,771.872375 1523.788330,772.482727 1523.787354,773.092590 
	C1523.738892,803.414551 1523.852173,833.722839 1520.161621,863.923157 
	C1513.660156,917.127747 1490.180298,959.973877 1444.650757,989.662903 
	C1443.974121,990.104187 1443.349121,990.624695 1442.355835,991.364624 
	C1449.996948,1003.808777 1457.525024,1016.119873 1465.102539,1028.400513 
	C1495.263550,1077.280640 1525.446045,1126.147461 1555.575195,1175.047241 
	C1556.320312,1176.256470 1556.891357,1177.777832 1556.939697,1179.174561 
	C1557.106079,1183.978149 1557.003784,1188.791138 1557.003784,1194.268555 
	C1523.656128,1194.268555 1490.578125,1194.268555 1457.000122,1194.268555 
z"/>
<path fill="#FEFEFE" opacity="1.000000" stroke="none" 
	d="
M1146.953125,846.057251 
	C1155.856689,864.039246 1159.617798,882.757263 1159.376465,902.756714 
	C1126.466187,902.756714 1093.724609,902.756714 1060.842163,902.756714 
	C1059.986206,898.930359 1059.501831,894.779053 1058.113770,890.955811 
	C1054.821899,881.888550 1048.309204,875.327209 1039.680786,871.513611 
	C1013.675232,860.019287 988.039001,861.266296 963.752808,876.146729 
	C951.036072,883.938416 945.277893,895.918884 947.822693,911.124451 
	C950.022827,924.271118 959.306702,930.816040 970.753174,935.074036 
	C986.054810,940.765991 1002.198608,942.147156 1018.246155,943.970825 
	C1046.886475,947.225342 1075.556030,950.420410 1102.927124,960.204468 
	C1123.911499,967.705444 1142.269775,978.985352 1154.995850,997.931152 
	C1165.096680,1012.968750 1169.707764,1029.846680 1171.485107,1047.657593 
	C1174.626099,1079.135376 1169.042358,1108.443115 1149.417114,1134.036987 
	C1132.615356,1155.948486 1110.357178,1170.448242 1084.829346,1180.210449 
	C1048.198730,1194.218384 1010.397461,1197.257202 971.765991,1191.814087 
	C969.551819,1191.501953 967.316406,1190.469604 965.361938,1189.313965 
	C927.771179,1167.088989 891.524536,1142.831543 856.426697,1116.860229 
	C854.540344,1115.464355 852.884827,1113.318726 851.936218,1111.163574 
	C844.994385,1095.391113 842.303345,1078.783203 842.369568,1061.297607 
	C875.986816,1061.297607 909.238281,1061.297607 942.852966,1061.297607 
	C945.363159,1083.322266 961.494324,1091.590698 980.205261,1096.362183 
	C1003.412048,1102.280273 1026.477661,1101.315186 1048.718872,1091.783691 
	C1053.223877,1089.853149 1057.547852,1086.991455 1061.229858,1083.737915 
	C1076.049316,1070.642944 1073.547363,1049.516479 1056.178711,1039.858154 
	C1043.781860,1032.964600 1029.967651,1031.551758 1016.223328,1029.995117 
	C995.385498,1027.635254 974.432617,1026.015137 953.736816,1022.757812 
	C933.911255,1019.637451 915.038818,1012.938599 897.790161,1002.324341 
	C874.522827,988.006348 859.546692,967.440002 853.064209,941.020264 
	C845.932129,911.952820 845.397400,882.908813 856.627441,854.585938 
	C869.312927,822.592285 892.862305,800.756653 923.961609,787.763123 
	C985.046387,762.241455 1045.115234,764.601685 1102.787842,798.375427 
	C1121.985840,809.617981 1136.545044,825.833862 1146.953125,846.057251 
z"/>
<path fill="#F9F9F9" opacity="1.000000" stroke="none" 
	d="
M1480.558594,1258.245483 
	C1480.488770,1285.237183 1476.205566,1311.328125 1463.622803,1335.555542 
	C1447.966187,1365.700684 1423.414551,1386.065186 1392.584106,1399.267944 
	C1354.405273,1415.617310 1314.155518,1419.553223 1273.178833,1418.340698 
	C1209.844238,1416.466675 1148.858643,1402.276001 1089.027588,1382.407104 
	C1011.921204,1356.801392 939.176697,1321.753540 869.358582,1280.429077 
	C798.675476,1238.592529 732.302795,1190.735474 669.704102,1137.589966 
	C667.994507,1136.138672 665.319397,1135.113525 663.086365,1135.098267 
	C637.756165,1134.925537 612.424072,1135.054932 587.093567,1134.906128 
	C583.892517,1134.887329 582.420959,1135.999878 581.153259,1138.790283 
	C574.545837,1153.334595 567.812378,1167.823364 560.903320,1182.226196 
	C560.157288,1183.781372 558.001160,1185.688232 556.489014,1185.697021 
	C522.159668,1185.896118 487.829010,1185.854492 453.498596,1185.839478 
	C453.061401,1185.839233 452.624298,1185.602295 451.612701,1185.309692 
	C455.032318,1177.746948 458.324005,1170.348145 461.711884,1162.993530 
	C485.245300,1111.905884 508.760468,1060.809570 532.432007,1009.785889 
	C533.997009,1006.412659 533.778503,1004.445618 531.285828,1001.582703 
	C486.984406,950.702454 446.952087,896.777710 415.359894,836.957825 
	C393.558868,795.677490 376.248138,752.719666 368.563324,706.375610 
	C363.014404,672.912231 362.924622,639.629639 374.042755,607.122009 
	C388.252960,565.573669 417.094391,537.891785 457.097687,521.237244 
	C487.861328,508.429382 520.251709,503.936005 553.296997,503.545288 
	C567.081177,503.382324 580.876160,504.123840 594.666199,504.454071 
	C594.680115,504.942108 594.694031,505.430145 594.707886,505.918213 
	C592.600647,506.031128 590.488220,506.302094 588.386963,506.233337 
	C553.353455,505.087036 518.754578,507.760345 485.358734,519.187866 
	C441.390228,534.233276 408.250366,561.380371 391.322876,605.796753 
	C381.652985,631.169800 379.346008,657.629517 381.553925,684.498474 
	C386.189362,740.909302 406.924805,792.055176 433.681732,841.092468 
	C464.791138,898.106506 503.630585,949.643738 546.710938,998.030151 
	C652.984741,1117.393433 777.268127,1214.175171 916.847290,1291.500977 
	C988.682007,1331.296875 1063.497192,1364.287842 1142.799316,1386.390381 
	C1189.158447,1399.311279 1236.213867,1408.198486 1284.537964,1408.526123 
	C1322.709473,1408.784912 1360.090332,1404.177490 1394.853760,1387.110596 
	C1443.677124,1363.141113 1471.111084,1323.725586 1478.037476,1269.900879 
	C1478.504517,1266.270264 1478.704834,1262.605347 1479.314819,1258.520020 
	C1479.919800,1258.137817 1480.239258,1258.191650 1480.558594,1258.245483 
z"/>
<path fill="#FDFDFD" opacity="1.000000" stroke="none" 
	d="
M832.460510,1098.498535 
	C817.130371,1086.223999 801.520752,1074.280273 786.521851,1061.613525 
	C738.716675,1021.241455 693.684753,977.971985 653.539612,929.912048 
	C635.837952,908.720276 619.637451,886.270752 602.948730,864.245789 
	C601.887268,862.845032 601.702148,859.811401 602.456482,858.148499 
	C614.349670,831.930420 626.515381,805.836060 638.451172,779.637024 
	C639.707703,776.878906 641.223816,776.104309 644.083679,776.140564 
	C655.747131,776.288391 667.422119,776.459351 679.074585,776.071472 
	C683.507812,775.923889 685.375854,777.533020 687.132446,781.356812 
	C710.749634,832.766174 734.541748,884.095154 758.286865,935.445801 
	C783.223511,989.373352 808.156189,1043.302734 832.914978,1097.731201 
	C832.739319,1098.231079 832.460510,1098.498535 832.460510,1098.498535 
z"/>
<path fill="#BCBCBC" opacity="1.000000" stroke="none" 
	d="
M1050.947021,719.444641 
	C1051.140991,718.915833 1051.479370,718.688416 1051.942871,718.181580 
	C1062.958374,725.384521 1073.849121,732.866943 1084.739746,740.349304 
	C1084.437500,740.784973 1084.135376,741.220642 1083.833130,741.656311 
	C1072.919189,734.352844 1062.005249,727.049438 1050.947021,719.444641 
z"/>
<path fill="#878787" opacity="1.000000" stroke="none" 
	d="
M640.747253,511.691437 
	C627.628418,510.101837 614.509583,508.512238 601.390686,506.922638 
	C601.480896,506.251892 601.571167,505.581116 601.661377,504.910339 
	C614.418213,506.670868 627.174988,508.431396 640.329834,510.480103 
	C640.740173,511.075867 640.746643,511.383575 640.747253,511.691437 
z"/>
<path fill="#3C3C3C" opacity="1.000000" stroke="none" 
	d="
M641.152161,511.852417 
	C640.746643,511.383575 640.740173,511.075867 640.732483,510.537109 
	C650.228088,512.017944 659.718994,513.729919 669.209900,515.441895 
	C669.120483,515.936768 669.031006,516.431702 668.941589,516.926636 
	C659.813416,515.288879 650.685242,513.651123 641.152161,511.852417 
z"/>
<path fill="#888888" opacity="1.000000" stroke="none" 
	d="
M1480.725342,1257.789429 
	C1480.239258,1258.191650 1479.919800,1258.137817 1479.345215,1258.075195 
	C1479.089966,1251.024048 1479.089966,1243.981567 1479.089966,1236.939087 
	C1479.304932,1236.924072 1479.520020,1236.909180 1479.734985,1236.894165 
	C1480.120728,1243.707275 1480.506348,1250.520264 1480.725342,1257.789429 
z"/>
<path fill="#6E6E6E" opacity="1.000000" stroke="none" 
	d="
M1093.454224,748.669189 
	C1091.326416,747.177124 1089.198486,745.685059 1087.070679,744.192932 
	C1087.379395,743.754028 1087.688232,743.315063 1087.996948,742.876099 
	C1089.947510,744.321655 1091.898193,745.767212 1093.827515,747.704163 
	C1093.688965,748.353333 1093.571533,748.511230 1093.454224,748.669189 
z"/>
<path fill="#6E6E6E" opacity="1.000000" stroke="none" 
	d="
M1096.480347,749.593018 
	C1098.239014,750.748352 1099.997681,751.903625 1101.756226,753.058960 
	C1101.482544,753.455994 1101.208984,753.853027 1100.935303,754.250061 
	C1099.341675,753.087463 1097.748169,751.924866 1096.150879,750.324585 
	C1096.147339,749.886902 1096.480347,749.593018 1096.480347,749.593018 
z"/>
<path fill="#6E6E6E" opacity="1.000000" stroke="none" 
	d="
M1094.011963,747.983887 
	C1094.872192,748.208252 1095.526855,748.644226 1096.330811,749.336609 
	C1096.480347,749.593018 1096.147339,749.886902 1095.983887,750.037354 
	C1095.153320,749.823669 1094.486206,749.459473 1093.636719,748.882202 
	C1093.571533,748.511230 1093.688965,748.353333 1094.011963,747.983887 
z"/>
<path fill="#FDFDFD" opacity="1.000000" stroke="none" 
	d="
M832.883789,1098.102905 
	C833.212952,1098.261108 833.397644,1098.547363 833.582336,1098.833740 
	C833.336792,1098.852539 833.091309,1098.871460 832.653137,1098.694458 
	C832.460510,1098.498535 832.739319,1098.231079 832.883789,1098.102905 
z"/>
</svg>